<mxfile host="app.diagrams.net" modified="2023-11-12T04:45:03.575Z" agent="Mozilla/5.0 (Windows NT 6.1; Win64; x64) AppleWebKit/537.36 (KHTML, like Gecko) Chrome/109.0.0.0 Safari/537.36 OPR/95.0.0.0" version="22.1.0" etag="SQ5iNpm__rVJIiI-NWvk" type="github">
  <diagram name="PÃ¡gina-1" id="NwiGRIUTR9WtGmNOfTWw">
    <mxGraphModel>
      <root>
        <mxCell id="0" />
        <mxCell id="1" parent="0" />
      </root>
    </mxGraphModel>
  </diagram>
</mxfile>
